HIERARCHY
ROOT SpineBase
{
  OFFSET 0.000000 0.000000 0.000000
  CHANNELS 6 Xposition Yposition Zposition Zrotation Xrotation Yrotation
  JOINT SpineMid
  {
    OFFSET 0.000000 29.134126 0.000000
    CHANNELS 3 Zrotation Xrotation Yrotation
    JOINT SpineShoulder
    {
      OFFSET 0.011041 21.738212 -0.711827
      CHANNELS 3 Zrotation Xrotation Yrotation
      JOINT Neck
      {
        OFFSET 0.014898 7.201598 -0.561061
        CHANNELS 3 Zrotation Xrotation Yrotation
        JOINT Head
        {
          OFFSET -4.073250 12.343708 1.239382
          CHANNELS 3 Zrotation Xrotation Yrotation
          End Site
          {
            OFFSET 0 0 0
          }
        }
      }
      JOINT ShoulderLeft
      {
        OFFSET -12.386178 -6.778793 7.848845
        CHANNELS 3 Zrotation Xrotation Yrotation
        JOINT ElbowLeft
        {
          OFFSET 0.078971 -27.483878 -9.774435
          CHANNELS 3 Zrotation Xrotation Yrotation
          JOINT WristLeft
          {
            OFFSET -4.111365 -20.601422 2.120346
            CHANNELS 3 Zrotation Xrotation Yrotation
            JOINT HandLeft
            {
              OFFSET 0.969154 -3.858540 4.619595
              CHANNELS 3 Zrotation Xrotation Yrotation
              JOINT HandTipLeft
              {
                OFFSET -0.110124 -3.141064 0.448330
                CHANNELS 3 Zrotation Xrotation Yrotation
                End Site
                {
                  OFFSET 0 0 0
                }
              }
              JOINT ThumbLeft
              {
                OFFSET 1.172287 1.617651 -2.175334
                CHANNELS 3 Zrotation Xrotation Yrotation
                End Site
                {
                  OFFSET 0 0 0
                }
              }
            }
          }
        }
      }
      JOINT ShoulderRight
      {
        OFFSET 11.060394 -2.499986 -10.127353
        CHANNELS 3 Zrotation Xrotation Yrotation
        JOINT ElbowRight
        {
          OFFSET 6.419176 -22.028564 -4.484153
          CHANNELS 3 Zrotation Xrotation Yrotation
          JOINT WristRight
          {
            OFFSET -3.699713 -20.889407 -4.311541
            CHANNELS 3 Zrotation Xrotation Yrotation
            JOINT HandRight
            {
              OFFSET -2.309443 -4.606551 -0.594311
              CHANNELS 3 Zrotation Xrotation Yrotation
              JOINT HandTipRight
              {
                OFFSET -1.692719 -6.922762 0.510778
                CHANNELS 3 Zrotation Xrotation Yrotation
                End Site
                {
                  OFFSET 0 0 0
                }
              }
              JOINT ThumbRight
              {
                OFFSET 2.427488 -1.422813 -2.163809
                CHANNELS 3 Zrotation Xrotation Yrotation
                End Site
                {
                  OFFSET 0 0 0
                }
              }
            }
          }
        }
      }
    }
  }
  JOINT HipLeft
  {
    OFFSET -5.326408 0.474709 0.530307
    CHANNELS 3 Zrotation Xrotation Yrotation
    JOINT KneeLeft
    {
      OFFSET 5.343080 -30.005602 1.609221
      CHANNELS 3 Zrotation Xrotation Yrotation
      JOINT AnkleLeft
      {
        OFFSET 8.031033 -31.275290 6.559204
        CHANNELS 3 Zrotation Xrotation Yrotation
        JOINT FootLeft
        {
          OFFSET -4.855550 -3.695381 -10.028684
          CHANNELS 3 Zrotation Xrotation Yrotation
          End Site
          {
            OFFSET 0 0 0
          }
        }
      }
    }
  }
  JOINT HipRight
  {
    OFFSET 5.045588 1.335816 -7.139094
    CHANNELS 3 Zrotation Xrotation Yrotation
    JOINT KneeRight
    {
      OFFSET 6.766872 -26.471901 -1.518125
      CHANNELS 3 Zrotation Xrotation Yrotation
      JOINT AnkleRight
      {
        OFFSET 7.869785 -36.506539 5.167015
        CHANNELS 3 Zrotation Xrotation Yrotation
        JOINT FootRight
        {
          OFFSET -6.280866 -2.370496 -12.301545
          CHANNELS 3 Zrotation Xrotation Yrotation
          End Site
          {
            OFFSET 0 0 0
          }
        }
      }
    }
  }
}
MOTION
Frames: 13
Frame Time: 0.033333
5.377341 67.442022 328.146881 3.179876 -2.191064 49.917520 0.347810 -0.036509 -49.754825 0.193967 0.285376 0.159953 4.510273 11.864759 1.323059 0.000000 0.000000 0.000000 -3.688489 -4.105661 -0.233540 7.127298 6.345991 -0.140074 -34.256855 61.398459 -3.975954 35.844367 -21.133419 35.152192 0.000000 0.000000 0.000000 0.000000 0.000000 0.000000 -0.889159 3.879305 -0.273365 1.775105 -5.711357 -0.142399 -1.539207 -6.070256 5.052678 5.528547 8.874893 -4.971656 0.000000 0.000000 0.000000 0.000000 0.000000 0.000000 -3.351542 18.581968 -48.639767 -1.475277 -8.709886 -5.353748 10.083895 2.435710 13.798866 0.000000 0.000000 0.000000 3.729615 -2.077543 -50.482994 -1.989020 -0.868319 1.024336 2.296734 -13.624578 12.936825 0.000000 0.000000 0.000000
3.775481 67.188510 328.074986 4.035555 -1.865369 49.650509 0.352224 -0.003014 -49.457430 0.172935 0.292000 0.194085 4.312185 10.235854 0.865115 0.000000 0.000000 0.000000 -3.464918 -3.450848 -0.650125 5.271413 5.869099 0.264441 -35.183091 69.037771 36.242448 15.202364 -47.901856 0.247330 0.000000 0.000000 0.000000 0.000000 0.000000 0.000000 -0.481516 3.262469 -0.683205 1.005406 -5.556944 0.107283 0.722862 -6.337630 5.118148 4.937470 9.374063 -4.918544 0.000000 0.000000 0.000000 0.000000 0.000000 0.000000 -3.670466 18.537302 -48.365056 -2.534460 -8.351468 -5.422228 10.835199 2.338828 12.292943 0.000000 0.000000 0.000000 3.254153 -2.436275 -50.306206 -1.574326 -0.354186 1.346590 3.522161 -17.451690 13.724650 0.000000 0.000000 0.000000
2.152842 66.984826 328.140935 4.972243 -1.658200 49.310271 0.280482 -0.069654 -49.077452 0.150462 0.230536 0.235862 3.750572 8.777186 0.394502 0.000000 0.000000 0.000000 -2.894094 -2.754074 -1.232987 4.160085 5.912283 0.743224 11.249994 40.720853 43.253947 -14.307274 -8.768292 -49.121406 0.000000 0.000000 0.000000 0.000000 0.000000 0.000000 0.189344 2.625174 -1.263305 -0.092202 -4.839653 0.443526 2.974153 -6.537324 5.081518 3.148418 9.944394 -4.648117 0.000000 0.000000 0.000000 0.000000 0.000000 0.000000 -3.588842 18.482676 -48.032587 -2.748899 -8.363505 -5.217959 11.185973 0.328968 11.644512 0.000000 0.000000 0.000000 2.678889 -2.382576 -50.033175 -0.770758 0.127675 1.637064 3.538973 -19.724705 13.005675 0.000000 0.000000 0.000000
0.525724 66.889432 328.340439 5.800784 -1.725655 47.948354 0.181193 -0.128034 -47.668497 0.117838 0.148203 0.273387 2.960030 7.211772 -0.130568 0.000000 0.000000 0.000000 -2.890676 -3.524210 -1.536964 4.297563 7.864506 0.730438 25.113195 45.488541 65.884401 -23.874031 6.255514 -76.931736 0.000000 0.000000 0.000000 0.000000 0.000000 0.000000 0.827017 2.094175 -1.843138 -1.083447 -3.937316 0.810388 5.688797 -9.558416 6.865021 0.687557 12.520916 -5.791386 0.000000 0.000000 0.000000 0.000000 0.000000 0.000000 -3.482055 18.238312 -46.651843 -2.422058 -8.611329 -4.845798 9.853441 0.435081 10.139181 0.000000 0.000000 0.000000 2.586222 -1.836172 -48.663392 0.122697 0.260984 1.832709 2.108661 -19.967717 10.969710 0.000000 0.000000 0.000000
-1.023483 66.954910 328.527430 6.511383 -2.077377 46.257890 0.073991 -0.195739 -45.917731 0.084858 0.065721 0.306787 2.838720 6.554373 -0.617778 0.000000 0.000000 0.000000 -3.069890 -5.104786 -1.696195 5.761482 11.798562 0.125003 14.092488 55.040470 77.497937 -29.644705 -6.138490 -81.764484 0.000000 0.000000 0.000000 0.000000 0.000000 0.000000 1.724067 1.676018 -2.499973 -2.003860 -3.400075 1.340190 6.150542 -9.493741 7.049882 1.227704 12.434583 -5.885327 0.000000 0.000000 0.000000 0.000000 0.000000 0.000000 -3.337506 17.952952 -44.934352 -2.825864 -8.562651 -4.652798 9.412653 0.703955 8.127511 0.000000 0.000000 0.000000 2.850994 -1.180091 -46.967910 0.798231 0.472764 2.021189 -0.512325 -18.325349 7.399547 0.000000 0.000000 0.000000
-2.239374 67.122352 328.727450 7.172283 -2.583139 43.304191 0.116593 -0.307113 -42.893637 0.113121 0.045277 0.344025 1.476782 5.090502 -1.126902 0.000000 0.000000 0.000000 -3.569361 -7.329024 -1.772995 8.412854 16.135214 -0.921425 31.549022 48.740511 87.694322 -24.306870 13.993033 -97.108231 0.000000 0.000000 0.000000 0.000000 0.000000 0.000000 2.173855 0.555559 -3.244577 -1.884771 -1.213562 1.602468 5.160245 -12.019338 8.959127 1.548175 14.512605 -7.312984 0.000000 0.000000 0.000000 0.000000 0.000000 0.000000 -3.835880 17.442030 -41.898459 -3.094580 -8.179702 -4.347135 9.212921 1.280374 5.204499 0.000000 0.000000 0.000000 3.040878 -0.046265 -43.984067 1.550404 0.602260 2.138391 -3.614745 -14.951200 2.624493 0.000000 0.000000 0.000000
-3.085403 67.363134 328.875233 7.712567 -3.171208 38.942374 0.096444 -0.404767 -38.455095 0.073066 0.004487 0.370890 1.521735 3.794156 -1.812230 0.000000 0.000000 0.000000 -4.567161 -9.972144 -1.567676 12.050575 20.788827 -2.828933 59.841340 5.654174 84.922608 14.892141 47.306934 -102.508467 0.000000 0.000000 0.000000 0.000000 0.000000 0.000000 2.262981 -1.211244 -4.006190 -1.442752 2.433346 1.727329 4.556079 -14.933766 10.921247 1.419549 18.124491 -9.121844 0.000000 0.000000 0.000000 0.000000 0.000000 0.000000 -5.145773 16.612591 -37.402299 -3.349005 -7.152098 -3.924916 9.561903 1.825438 1.657621 0.000000 0.000000 0.000000 3.104214 1.328416 -39.579510 1.907383 0.580629 2.150156 -6.183896 -10.365755 -2.057014 0.000000 0.000000 0.000000
-3.760020 67.436573 329.033997 8.381109 -3.770921 32.760881 0.081713 -0.557068 -32.176511 0.036724 -0.063672 0.407067 -0.001414 2.862555 -2.221110 0.000000 0.000000 0.000000 -6.155567 -13.425967 -1.218042 15.846074 25.447036 -5.346000 10.404132 9.843791 40.733416 -1.711876 5.324229 -41.354458 0.000000 0.000000 0.000000 0.000000 0.000000 0.000000 2.484747 -3.497116 -4.953543 -1.245338 6.635754 1.926354 3.579198 -16.804909 12.218972 -2.113805 20.355778 -9.052427 0.000000 0.000000 0.000000 0.000000 0.000000 0.000000 -7.417865 15.353669 -31.044729 -3.235304 -5.716247 -3.333613 10.034944 2.334643 -2.388350 0.000000 0.000000 0.000000 3.314937 3.225788 -33.286960 1.473562 -0.262967 1.994054 -7.879011 -5.262522 -5.875820 0.000000 0.000000 0.000000
-4.170361 67.515606 329.118615 8.842663 -4.400717 25.612493 0.104244 -0.707097 -24.935885 0.000538 -0.124939 0.433798 -1.393113 1.693898 -2.672313 0.000000 0.000000 0.000000 -7.088427 -15.490604 -1.017785 18.782335 28.444786 -7.395328 -13.744269 14.084666 12.993895 10.384637 -7.111031 -9.881872 0.000000 0.000000 0.000000 0.000000 0.000000 0.000000 2.204061 -5.962751 -5.782879 -0.184553 11.029716 1.792934 -0.222620 -16.253628 11.638502 0.864072 17.046807 -8.357811 0.000000 0.000000 0.000000 0.000000 0.000000 0.000000 -9.886826 13.478090 -23.811917 -3.006971 -3.968902 -2.702805 10.876534 2.800586 -6.825653 0.000000 0.000000 0.000000 2.694017 5.317550 -25.974968 1.487551 -1.016570 1.794784 -7.312750 -4.467112 -9.520790 0.000000 0.000000 0.000000
-4.304683 67.540896 329.172618 8.999190 -5.019582 18.124367 0.165985 -0.820989 -17.377808 -0.040742 -0.162703 0.444259 -2.557258 0.965133 -2.961951 0.000000 0.000000 0.000000 -7.763732 -16.039255 -0.803545 23.239112 31.158323 -10.301102 -20.296456 1.000972 3.040542 6.666908 3.550159 -4.081505 0.000000 0.000000 0.000000 0.000000 0.000000 0.000000 1.663676 -8.376912 -6.474166 1.613743 15.759138 1.080255 -4.905209 -15.955841 10.960253 5.535491 18.724875 -9.625177 0.000000 0.000000 0.000000 0.000000 0.000000 0.000000 -12.168328 11.399489 -16.341047 -2.400917 -2.444733 -2.149030 11.829988 3.168230 -11.096381 0.000000 0.000000 0.000000 1.803955 7.118230 -18.292833 0.926390 -1.980427 1.460496 -4.943545 -6.088994 -14.335137 0.000000 0.000000 0.000000
-4.533779 67.582477 329.237119 9.175620 -5.627259 11.509681 0.264190 -0.924367 -10.691100 -0.072979 -0.205621 0.457622 -3.854806 0.411410 -3.184500 0.000000 0.000000 0.000000 -7.200707 -14.194978 -0.997271 22.154537 30.499690 -9.474744 -21.596975 -7.228010 -0.816379 4.365761 7.403439 -1.170209 0.000000 0.000000 0.000000 0.000000 0.000000 0.000000 0.847773 -10.712890 -7.133490 3.545591 20.266025 0.139469 -7.338095 -14.869190 9.939576 8.382788 18.313620 -9.339865 0.000000 0.000000 0.000000 0.000000 0.000000 0.000000 -13.614554 9.559636 -9.815553 -2.182859 -1.373659 -1.793281 12.857414 3.405264 -15.011552 0.000000 0.000000 0.000000 0.121458 8.299659 -11.438548 0.948026 -2.317657 1.231974 -3.711985 -5.813601 -18.166067 0.000000 0.000000 0.000000
-4.616642 67.661275 329.295668 9.252478 -6.012028 6.864457 0.334896 -0.878159 -6.010348 -0.109801 -0.174779 0.458092 -5.211816 -0.321058 -3.294697 0.000000 0.000000 0.000000 -5.654893 -9.992745 -1.589831 16.627305 24.272284 -4.837697 -21.135484 -6.095243 -3.393504 2.025977 7.687117 1.222347 0.000000 0.000000 0.000000 0.000000 0.000000 0.000000 -0.032655 -12.398302 -7.499272 5.346488 23.320157 -0.831847 -8.918695 -14.532080 9.443540 10.117546 16.313581 -8.420371 0.000000 0.000000 0.000000 0.000000 0.000000 0.000000 -14.565964 8.371153 -5.233488 -2.002592 -0.935372 -1.658712 13.902309 3.562473 -18.206429 0.000000 0.000000 0.000000 -1.619438 8.613027 -6.575952 0.993769 -2.388921 1.019070 -2.375318 -5.525155 -21.273026 0.000000 0.000000 0.000000
-4.607696 67.745495 329.372717 9.398439 -6.238366 3.332500 0.332705 -0.780802 -2.451936 -0.146469 -0.131775 0.458000 -6.519180 -1.047044 -3.361503 0.000000 0.000000 0.000000 -3.769501 -7.736318 -2.361420 10.063753 19.124470 -0.958469 -17.920608 -1.642994 -3.301768 3.881878 3.981177 1.914512 0.000000 0.000000 0.000000 0.000000 0.000000 0.000000 -1.013691 -13.587505 -7.691172 7.100638 25.647125 -1.883297 -9.906506 -15.544542 9.731525 10.418203 19.666909 -9.863654 0.000000 0.000000 0.000000 0.000000 0.000000 0.000000 -15.530915 7.240304 -1.791634 -1.718849 -0.488793 -1.530511 14.991258 3.685480 -21.295586 0.000000 0.000000 0.000000 -3.279534 8.264368 -2.900591 1.221700 -2.223048 0.892954 -1.288440 -5.101737 -24.297204 0.000000 0.000000 0.000000
